<svg width="20" height="20" viewBox="0 0 20 20" fill="none" xmlns="http://www.w3.org/2000/svg">
<path d="M17.5458 10.0725L15.579 12.2511C14.87 13.0312 14.0058 13.6544 13.0419 14.0809C12.0779 14.5074 11.0354 14.7277 9.98129 14.7277C8.92718 14.7277 7.8847 14.5074 6.92072 14.0809C5.95674 13.6544 5.09253 13.0312 4.38353 12.2511L2.41675 10.0725L4.17172 7.96959C4.88165 7.11827 5.77001 6.43337 6.77393 5.96337C7.77785 5.49338 8.8728 5.24976 9.98129 5.24976C11.0898 5.24976 12.1847 5.49338 13.1886 5.96337C14.1926 6.43337 15.0809 7.11827 15.7909 7.96959L17.5458 10.0725Z" stroke="#555555" stroke-width="1.5" stroke-linecap="round" stroke-linejoin="round"/>
<path d="M10.0493 11.6912C11.1355 11.6912 12.0161 10.8445 12.0161 9.80007C12.0161 8.75563 11.1355 7.90894 10.0493 7.90894C8.96308 7.90894 8.08252 8.75563 8.08252 9.80007C8.08252 10.8445 8.96308 11.6912 10.0493 11.6912Z" stroke="#555555" stroke-width="1.5" stroke-linecap="round" stroke-linejoin="bevel"/>
<line x1="4.16675" y1="15.6058" x2="16.4394" y2="3.33317" stroke="#555555" stroke-width="1.5" stroke-linecap="round"/>
</svg>
