<svg width="20" height="20" viewBox="0 0 20 20" fill="none" xmlns="http://www.w3.org/2000/svg">
<path d="M17.5456 10.0727L15.5788 12.2512C14.8698 13.0313 14.0056 13.6545 13.0416 14.081C12.0776 14.5075 11.0352 14.7278 9.98104 14.7278C8.92693 14.7278 7.88446 14.5075 6.92047 14.081C5.95649 13.6545 5.09229 13.0313 4.38328 12.2512L2.4165 10.0727L4.17148 7.96971C4.88141 7.11839 5.76977 6.4335 6.77369 5.9635C7.77761 5.4935 8.87255 5.24988 9.98104 5.24988C11.0895 5.24988 12.1845 5.4935 13.1884 5.9635C14.1923 6.4335 15.0807 7.11839 15.7906 7.96971L17.5456 10.0727Z" stroke="#555555" stroke-width="1.5" stroke-linecap="round" stroke-linejoin="round"/>
<path d="M10.0493 11.6913C11.1355 11.6913 12.0161 10.8446 12.0161 9.80019C12.0161 8.75575 11.1355 7.90906 10.0493 7.90906C8.96308 7.90906 8.08252 8.75575 8.08252 9.80019C8.08252 10.8446 8.96308 11.6913 10.0493 11.6913Z" stroke="#555555" stroke-width="1.5" stroke-linecap="round" stroke-linejoin="bevel"/>
</svg>
