<svg width="291" height="54" viewBox="0 0 291 54" fill="none" xmlns="http://www.w3.org/2000/svg">
<path d="M103.607 26.9999C103.607 32.3401 102.03 37.5604 99.0764 42.0005C96.1226 46.4407 91.9243 49.9014 87.0123 51.9448C82.1004 53.9883 76.6954 54.5229 71.481 53.4809C66.2666 52.4389 61.4769 49.8672 57.7176 46.091C53.9584 42.3147 51.3984 37.5036 50.3614 32.2659C49.3245 27.0283 49.8572 21.5995 51.8921 16.6659C53.927 11.7323 57.3727 7.51569 61.7935 4.54918C66.2144 1.58267 71.4117 -0.000458521 76.7283 9.96161e-08C80.2584 9.96161e-08 83.7539 0.698374 87.0152 2.05525C90.2765 3.41212 93.2398 5.40092 95.7359 7.9081C98.232 10.4153 100.212 13.3917 101.563 16.6675C102.914 19.9433 103.609 23.4543 103.609 26.9999" fill="#FFC117"/>
<path d="M4.07203 13.7504C4.69676 13.7423 5.31313 13.8951 5.86235 14.1943C6.41157 14.4935 6.87532 14.929 7.20935 15.4593C9.85344 14.0099 12.8949 13.463 15.8754 13.9009C18.8559 14.3388 21.614 15.7378 23.734 17.8871C25.6023 15.9571 27.996 14.6237 30.6152 14.0537C33.2345 13.4837 35.963 13.7026 38.459 14.6829C40.955 15.6631 43.1077 17.3612 44.6474 19.5645C46.1871 21.7679 47.0455 24.3785 47.115 27.0695V39.5353C47.0842 40.5167 46.669 41.4462 45.9596 42.1219C45.2502 42.7975 44.304 43.1645 43.3267 43.1433C42.8462 43.1528 42.3686 43.0669 41.9212 42.8906C41.4739 42.7142 41.0656 42.4509 40.7199 42.1157C40.3741 41.7804 40.0977 41.3799 39.9064 40.9371C39.7151 40.4943 39.6128 40.0179 39.6053 39.5353V27.0718C39.6053 25.4538 38.9654 23.902 37.8263 22.7579C36.6873 21.6138 35.1424 20.9711 33.5315 20.9711C31.9206 20.9711 30.3757 21.6138 29.2367 22.7579C28.0976 23.902 27.4577 25.4538 27.4577 27.0718V39.5353C27.4502 40.0179 27.3479 40.4943 27.1566 40.9371C26.9653 41.3799 26.6889 41.7804 26.3431 42.1157C25.9973 42.4509 25.5891 42.7142 25.1417 42.8906C24.6944 43.0669 24.2168 43.1528 23.7363 43.1433C22.7582 43.1658 21.8108 42.7993 21.1004 42.1235C20.39 41.4478 19.9741 40.5175 19.9433 39.5353V27.0718C19.9433 25.4538 19.3034 23.902 18.1644 22.7579C17.0253 21.6138 15.4804 20.9711 13.8695 20.9711C12.2587 20.9711 10.7138 21.6138 9.5747 22.7579C8.43564 23.902 7.79573 25.4538 7.79573 27.0718V39.5353C7.78822 40.0179 7.6859 40.4943 7.49463 40.9371C7.30336 41.3799 7.02691 41.7804 6.68115 42.1157C6.33538 42.4509 5.92711 42.7142 5.47977 42.8906C5.03242 43.0669 4.55481 43.1528 4.07434 43.1433C3.09659 43.1652 2.14979 42.7984 1.43991 42.1227C0.730024 41.447 0.314486 40.5171 0.283691 39.5353V17.363C0.313294 16.3808 0.72799 15.4501 1.4375 14.7734C2.14702 14.0968 3.0939 13.7291 4.07203 13.7504Z" fill="#176CF7"/>
<path d="M106.346 28.4493C106.37 26.4933 106.778 24.5612 107.546 22.7636C108.315 20.9661 109.428 19.3383 110.824 17.9735C112.219 16.6087 113.868 15.5336 115.678 14.8098C117.487 14.086 119.421 13.7276 121.368 13.7552C124.106 13.7556 126.793 14.5034 129.141 15.9186C129.434 15.2495 129.921 14.6849 130.539 14.2988C131.157 13.9128 131.877 13.7233 132.604 13.7552C133.084 13.7453 133.562 13.831 134.01 14.0072C134.457 14.1834 134.866 14.4467 135.212 14.782C135.558 15.1172 135.835 15.5178 136.026 15.9608C136.217 16.4038 136.32 16.8804 136.327 17.3632V39.5354C136.32 40.0183 136.217 40.4948 136.026 40.9378C135.835 41.3808 135.558 41.7814 135.212 42.1167C134.866 42.4519 134.457 42.7152 134.01 42.8914C133.562 43.0676 133.084 43.1533 132.604 43.1434C131.877 43.1754 131.157 42.9859 130.539 42.5998C129.921 42.2137 129.434 41.6491 129.141 40.98C126.793 42.3954 124.106 43.1432 121.368 43.1434C119.421 43.171 117.487 42.8127 115.678 42.0888C113.868 41.365 112.219 40.2899 110.824 38.9251C109.428 37.5603 108.315 35.9325 107.546 34.135C106.778 32.3374 106.37 30.4054 106.346 28.4493ZM113.856 28.4493C113.838 29.9377 114.26 31.3981 115.069 32.645C115.879 33.892 117.039 34.8693 118.402 35.4531C119.765 36.0368 121.27 36.2006 122.726 35.9237C124.183 35.6468 125.524 34.9417 126.58 33.8978C127.637 32.854 128.361 31.5184 128.66 30.0606C128.96 28.6027 128.822 27.0884 128.263 25.7097C127.704 24.331 126.75 23.15 125.522 22.3167C124.294 21.4834 122.848 21.0353 121.366 21.0292C120.387 21.0203 119.417 21.2053 118.51 21.5736C117.603 21.9418 116.777 22.4861 116.079 23.1753C115.382 23.8644 114.826 24.685 114.445 25.59C114.063 26.4949 113.863 27.4666 113.856 28.4493Z" fill="#176CF7"/>
<path d="M141.421 29.8267V9.02956C141.452 8.04813 141.867 7.11858 142.577 6.44296C143.286 5.76734 144.232 5.40027 145.21 5.42153C145.69 5.4117 146.168 5.49734 146.616 5.67355C147.063 5.84976 147.472 6.11306 147.818 6.44832C148.164 6.78358 148.441 7.1842 148.632 7.62717C148.824 8.07014 148.926 8.54672 148.933 9.02956V13.6903H153.636C154.123 13.6729 154.608 13.7541 155.063 13.9292C155.518 14.1043 155.933 14.3696 156.284 14.7094C156.634 15.0492 156.913 15.4564 157.103 15.9068C157.294 16.3572 157.392 16.8415 157.392 17.3308C157.392 17.8201 157.294 18.3044 157.103 18.7548C156.913 19.2052 156.634 19.6124 156.284 19.9522C155.933 20.292 155.518 20.5573 155.063 20.7324C154.608 20.9075 154.123 20.9888 153.636 20.9713H148.933V29.8291C148.946 31.4367 149.592 32.9739 150.73 34.1039C151.869 35.234 153.407 35.8647 155.007 35.8579H157.814C158.306 35.833 158.797 35.9087 159.258 36.0804C159.72 36.2521 160.141 36.5162 160.498 36.8567C160.855 37.1972 161.138 37.607 161.332 38.0611C161.526 38.5152 161.626 39.0042 161.626 39.4984C161.626 39.9926 161.526 40.4816 161.332 40.9357C161.138 41.3898 160.855 41.7996 160.498 42.1401C160.141 42.4806 159.72 42.7447 159.258 42.9164C158.797 43.0881 158.306 43.1638 157.814 43.1389H155.007C153.245 43.1606 151.495 42.8334 149.859 42.1759C148.222 41.5184 146.73 40.5435 145.469 39.3068C144.208 38.0702 143.201 36.5961 142.507 34.9687C141.813 33.3413 141.445 31.5924 141.424 29.8221" fill="#176CF7"/>
<path d="M152.855 13.7548H132.403V20.9268H152.855V13.7548Z" fill="#176CF7"/>
<path d="M63.1377 26.1185C63.1461 25.6274 63.2508 25.1428 63.4458 24.6924C63.6407 24.242 63.9222 23.8346 64.274 23.4934C64.6259 23.1523 65.0412 22.8842 65.4962 22.7044C65.9512 22.5246 66.4371 22.4367 66.926 22.4456C67.4116 22.4376 67.8939 22.5266 68.3449 22.7075C68.7959 22.8885 69.2066 23.1576 69.5531 23.4994C69.8996 23.8412 70.1749 24.2487 70.3632 24.6984C70.5515 25.148 70.6489 25.6307 70.6497 26.1185V29.8286C70.6497 31.4466 71.2896 32.9983 72.4287 34.1424C73.5678 35.2865 75.1126 35.9293 76.7235 35.9293C78.3344 35.9293 79.8793 35.2865 81.0184 34.1424C82.1574 32.9983 82.7973 31.4466 82.7973 29.8286V26.1185C82.8058 25.6274 82.9104 25.1428 83.1054 24.6924C83.3004 24.242 83.5818 23.8346 83.9337 23.4934C84.2855 23.1523 84.7008 22.8842 85.1558 22.7044C85.6109 22.5246 86.0968 22.4367 86.5857 22.4456C87.071 22.4379 87.5531 22.5272 88.0038 22.7082C88.4546 22.8893 88.865 23.1585 89.2112 23.5002C89.5575 23.842 89.8326 24.2494 90.0208 24.6989C90.2089 25.1484 90.3062 25.6309 90.3071 26.1185V29.8286C90.2269 33.3941 88.7605 36.7864 86.2216 39.2796C83.6827 41.7729 80.2731 43.1688 76.7224 43.1688C73.1717 43.1688 69.7621 41.7729 67.2232 39.2796C64.6843 36.7864 63.2179 33.3941 63.1377 29.8286V26.1185Z" fill="#176CF7"/>
<path d="M70.7095 16.9458C70.7095 17.6974 70.4876 18.4322 70.0719 19.0572C69.6561 19.6822 69.0652 20.1693 68.3738 20.4569C67.6824 20.7446 66.9216 20.8199 66.1876 20.6732C65.4537 20.5266 64.7795 20.1646 64.2503 19.6331C63.7211 19.1016 63.3608 18.4244 63.2148 17.6872C63.0688 16.95 63.1437 16.1858 63.4301 15.4914C63.7165 14.7969 64.2015 14.2034 64.8237 13.7858C65.4459 13.3682 66.1775 13.1453 66.9258 13.1453C67.9293 13.1453 68.8917 13.5457 69.6013 14.2584C70.3109 14.9711 70.7095 15.9378 70.7095 16.9458Z" fill="#176CF7"/>
<path d="M90.314 16.9458C90.314 17.6974 90.0921 18.4322 89.6764 19.0572C89.2606 19.6822 88.6697 20.1693 87.9783 20.4569C87.2869 20.7446 86.5261 20.8199 85.7922 20.6732C85.0582 20.5266 84.384 20.1646 83.8548 19.6331C83.3257 19.1016 82.9653 18.4244 82.8193 17.6872C82.6733 16.95 82.7482 16.1858 83.0346 15.4914C83.321 14.7969 83.806 14.2034 84.4282 13.7858C85.0504 13.3682 85.782 13.1453 86.5303 13.1453C87.5338 13.1453 88.4962 13.5457 89.2058 14.2584C89.9154 14.9711 90.314 15.9378 90.314 16.9458Z" fill="#176CF7"/>
<path d="M63.1377 26.1185C63.1461 25.6274 63.2508 25.1428 63.4458 24.6924C63.6407 24.242 63.9222 23.8346 64.274 23.4934C64.6259 23.1523 65.0412 22.8842 65.4962 22.7044C65.9512 22.5246 66.4371 22.4367 66.926 22.4456C67.4116 22.4376 67.8939 22.5266 68.3449 22.7075C68.7959 22.8885 69.2066 23.1576 69.5531 23.4994C69.8996 23.8412 70.1749 24.2487 70.3632 24.6984C70.5515 25.148 70.6489 25.6307 70.6497 26.1185V29.8286C70.6497 31.4466 71.2896 32.9983 72.4287 34.1424C73.5678 35.2865 75.1126 35.9293 76.7235 35.9293C78.3344 35.9293 79.8793 35.2865 81.0184 34.1424C82.1574 32.9983 82.7973 31.4466 82.7973 29.8286V26.1185C82.8058 25.6274 82.9104 25.1428 83.1054 24.6924C83.3004 24.242 83.5818 23.8346 83.9337 23.4934C84.2855 23.1523 84.7008 22.8842 85.1558 22.7044C85.6109 22.5246 86.0968 22.4367 86.5857 22.4456C87.071 22.4379 87.5531 22.5272 88.0038 22.7082C88.4546 22.8893 88.865 23.1585 89.2112 23.5002C89.5575 23.842 89.8326 24.2494 90.0208 24.6989C90.2089 25.1484 90.3062 25.6309 90.3071 26.1185V29.8286C90.2269 33.3941 88.7605 36.7864 86.2216 39.2796C83.6827 41.7729 80.2731 43.1688 76.7224 43.1688C73.1717 43.1688 69.7621 41.7729 67.2232 39.2796C64.6843 36.7864 63.2179 33.3941 63.1377 29.8286V26.1185Z" fill="#176CF7"/>
<path d="M70.7095 16.9458C70.7095 17.6974 70.4876 18.4322 70.0719 19.0572C69.6561 19.6822 69.0652 20.1693 68.3738 20.4569C67.6824 20.7446 66.9216 20.8199 66.1876 20.6732C65.4537 20.5266 64.7795 20.1646 64.2503 19.6331C63.7211 19.1016 63.3608 18.4244 63.2148 17.6872C63.0688 16.95 63.1437 16.1858 63.4301 15.4914C63.7165 14.7969 64.2015 14.2034 64.8237 13.7858C65.4459 13.3682 66.1775 13.1453 66.9258 13.1453C67.9293 13.1453 68.8917 13.5457 69.6013 14.2584C70.3109 14.9711 70.7095 15.9378 70.7095 16.9458Z" fill="#176CF7"/>
<path d="M90.314 16.9458C90.314 17.6974 90.0921 18.4322 89.6764 19.0572C89.2606 19.6822 88.6697 20.1693 87.9783 20.4569C87.2869 20.7446 86.5261 20.8199 85.7922 20.6732C85.0582 20.5266 84.384 20.1646 83.8548 19.6331C83.3257 19.1016 82.9653 18.4244 82.8193 17.6872C82.6733 16.95 82.7482 16.1858 83.0346 15.4914C83.321 14.7969 83.806 14.2034 84.4282 13.7858C85.0504 13.3682 85.782 13.1453 86.5303 13.1453C87.5338 13.1453 88.4962 13.5457 89.2058 14.2584C89.9154 14.9711 90.314 15.9378 90.314 16.9458Z" fill="#176CF7"/>
<path d="M171.101 28.759C171.101 29.7615 171.29 30.6898 171.668 31.5438C172.046 32.3978 172.556 33.1589 173.198 33.8273C173.878 34.4585 174.652 34.9597 175.521 35.331C176.39 35.7023 177.334 35.888 178.354 35.888C179.374 35.888 180.318 35.7023 181.187 35.331C182.056 34.9597 182.812 34.4585 183.454 33.8273C184.134 33.1589 184.663 32.3978 185.04 31.5438C185.418 30.6898 185.607 29.7615 185.607 28.759C185.607 27.7565 185.418 26.8283 185.04 25.9743C184.663 25.1203 184.134 24.3777 183.454 23.7465C182.812 23.0781 182.056 22.5583 181.187 22.187C180.318 21.8157 179.374 21.6301 178.354 21.6301C177.334 21.6301 176.39 21.8157 175.521 22.187C174.652 22.5583 173.878 23.0781 173.198 23.7465C172.556 24.3777 172.046 25.1203 171.668 25.9743C171.29 26.8283 171.101 27.7565 171.101 28.759ZM163.849 28.759C163.849 26.7911 164.226 24.9532 164.982 23.2452C165.737 21.5001 166.776 19.9778 168.098 18.6783C169.42 17.3787 170.95 16.3576 172.688 15.615C174.463 14.8724 176.352 14.5011 178.354 14.5011C180.356 14.5011 182.226 14.8724 183.964 15.615C185.739 16.3576 187.288 17.3787 188.61 18.6783C189.932 19.9778 190.971 21.5001 191.726 23.2452C192.482 24.9532 192.86 26.7911 192.86 28.759C192.86 30.7269 192.482 32.5834 191.726 34.3285C190.971 36.0365 189.932 37.5403 188.61 38.8398C187.288 40.1393 185.739 41.1604 183.964 41.903C182.226 42.6456 180.356 43.0169 178.354 43.0169C175.672 43.0169 173.255 42.3857 171.101 41.1233V50.1459C171.101 51.1112 170.743 51.9467 170.025 52.6521C169.307 53.3576 168.457 53.7103 167.475 53.7103C166.493 53.7103 165.643 53.3576 164.925 52.6521C164.207 51.9467 163.849 51.1112 163.849 50.1459V28.759Z" fill="#176CF7"/>
<path d="M194.659 28.759C194.659 26.7911 195.037 24.9532 195.792 23.2452C196.548 21.5001 197.587 19.9778 198.909 18.6783C200.231 17.3787 201.761 16.3576 203.498 15.615C205.274 14.8724 207.163 14.5011 209.165 14.5011C211.167 14.5011 213.037 14.8724 214.774 15.615C216.55 16.3576 218.098 17.3787 219.421 18.6783C220.743 19.9778 221.781 21.5001 222.537 23.2452C223.292 24.9532 223.67 26.7911 223.67 28.759V39.4524C223.67 40.4178 223.311 41.2532 222.594 41.9587C221.876 42.6642 221.026 43.0169 220.044 43.0169C219.288 43.0169 218.608 42.8313 218.004 42.46C217.437 42.0515 217.003 41.5317 216.701 40.9005C215.605 41.5688 214.415 42.0887 213.131 42.46C211.884 42.8313 210.562 43.0169 209.165 43.0169C207.163 43.0169 205.274 42.6456 203.498 41.903C201.761 41.1604 200.231 40.1393 198.909 38.8398C197.587 37.5403 196.548 36.0365 195.792 34.3285C195.037 32.5834 194.659 30.7269 194.659 28.759ZM201.912 28.759C201.912 29.7615 202.101 30.6898 202.479 31.5438C202.856 32.3978 203.366 33.1589 204.008 33.8273C204.688 34.4585 205.463 34.9597 206.332 35.331C207.2 35.7023 208.145 35.888 209.165 35.888C210.185 35.888 211.129 35.7023 211.998 35.331C212.867 34.9597 213.622 34.4585 214.264 33.8273C214.944 33.1589 215.473 32.3978 215.851 31.5438C216.229 30.6898 216.417 29.7615 216.417 28.759C216.417 27.7565 216.229 26.8283 215.851 25.9743C215.473 25.1203 214.944 24.3777 214.264 23.7465C213.622 23.0781 212.867 22.5583 211.998 22.187C211.129 21.8157 210.185 21.6301 209.165 21.6301C208.145 21.6301 207.2 21.8157 206.332 22.187C205.463 22.5583 204.688 23.0781 204.008 23.7465C203.366 24.3777 202.856 25.1203 202.479 25.9743C202.101 26.8283 201.912 27.7565 201.912 28.759Z" fill="#176CF7"/>
<path d="M240.882 14.5011C241.864 14.5011 242.714 14.8539 243.432 15.5593C244.149 16.2648 244.508 17.1002 244.508 18.0656C244.508 19.031 244.149 19.8664 243.432 20.5719C242.714 21.2773 241.864 21.6301 240.882 21.6301C239.862 21.6301 238.918 21.8157 238.049 22.187C237.18 22.5583 236.406 23.0781 235.726 23.7465C235.083 24.3777 234.573 25.1203 234.196 25.9743C233.818 26.8283 233.629 27.7565 233.629 28.759V39.4524C233.629 40.4178 233.27 41.2532 232.552 41.9587C231.835 42.6642 230.985 43.0169 230.003 43.0169C229.021 43.0169 228.171 42.6642 227.453 41.9587C226.735 41.2532 226.376 40.4178 226.376 39.4524V28.759C226.376 26.7911 226.754 24.9532 227.51 23.2452C228.265 21.5001 229.304 19.9778 230.626 18.6783C231.948 17.3787 233.478 16.3576 235.216 15.615C236.991 14.8724 238.88 14.5011 240.882 14.5011Z" fill="#176CF7"/>
<path d="M258.989 35.888C259.971 35.888 260.821 36.2407 261.539 36.9462C262.256 37.6516 262.615 38.4871 262.615 39.4524C262.615 40.4178 262.256 41.2532 261.539 41.9587C260.821 42.6642 259.971 43.0169 258.989 43.0169H257.176C255.665 43.0169 254.248 42.7384 252.926 42.1815C251.604 41.6245 250.452 40.8634 249.47 39.898C248.488 38.9326 247.713 37.8002 247.147 36.5006C246.58 35.2011 246.297 33.8087 246.297 32.3235V10.9367C246.297 9.97129 246.655 9.13586 247.373 8.43039C248.091 7.72493 248.941 7.37219 249.923 7.37219C250.905 7.37219 251.755 7.72493 252.473 8.43039C253.191 9.13586 253.549 9.97129 253.549 10.9367V14.5011H258.989C259.971 14.5011 260.821 14.8539 261.539 15.5593C262.256 16.2648 262.615 17.1002 262.615 18.0656C262.615 19.031 262.256 19.8664 261.539 20.5719C260.821 21.2773 259.971 21.6301 258.989 21.6301H253.549V32.3235C253.549 33.2889 253.908 34.1243 254.626 34.8298C255.344 35.5352 256.194 35.888 257.176 35.888H258.989Z" fill="#176CF7"/>
<path d="M281.65 35.888C282.179 35.888 282.614 35.7209 282.954 35.3867C283.293 35.0525 283.463 34.6255 283.463 34.1057C283.463 33.5859 283.293 33.1589 282.954 32.8247C282.614 32.4906 282.179 32.3235 281.65 32.3235H274.398C273.151 32.3235 271.98 32.1007 270.884 31.6552C269.789 31.1725 268.826 30.5227 267.995 29.7058C267.164 28.889 266.503 27.9422 266.012 26.8654C265.558 25.7886 265.332 24.6376 265.332 23.4123C265.332 22.187 265.558 21.036 266.012 19.9592C266.503 18.8825 267.164 17.9357 267.995 17.1188C268.826 16.3019 269.789 15.6707 270.884 15.2252C271.98 14.7425 273.151 14.5011 274.398 14.5011H285.277C286.259 14.5011 287.109 14.8539 287.826 15.5593C288.544 16.2648 288.903 17.1002 288.903 18.0656C288.903 19.031 288.544 19.8664 287.826 20.5719C287.109 21.2773 286.259 21.6301 285.277 21.6301H274.398C273.869 21.6301 273.434 21.7972 273.094 22.1313C272.754 22.4655 272.584 22.8925 272.584 23.4123C272.584 23.9321 272.754 24.3591 273.094 24.6933C273.434 25.0275 273.869 25.1946 274.398 25.1946H281.65C282.897 25.1946 284.068 25.4359 285.163 25.9186C286.259 26.3641 287.222 26.9954 288.053 27.8122C288.884 28.6291 289.526 29.5759 289.98 30.6527C290.471 31.7294 290.716 32.8804 290.716 34.1057C290.716 35.331 290.471 36.482 289.98 37.5588C289.526 38.6356 288.884 39.5824 288.053 40.3993C287.222 41.2161 286.259 41.8659 285.163 42.3486C284.068 42.7941 282.897 43.0169 281.65 43.0169H268.958C267.976 43.0169 267.126 42.6642 266.408 41.9587C265.69 41.2532 265.332 40.4178 265.332 39.4524C265.332 38.4871 265.69 37.6516 266.408 36.9462C267.126 36.2407 267.976 35.888 268.958 35.888H281.65Z" fill="#176CF7"/>
</svg>
