<svg width="8" height="8" viewBox="0 0 8 8" fill="none" xmlns="http://www.w3.org/2000/svg">
<path d="M0.165873 7.82584C0.113342 7.77139 0.0716216 7.70646 0.0431439 7.63485C0.0146661 7.56324 0 7.48638 0 7.40874C0 7.3311 0.0146661 7.25423 0.0431439 7.18262C0.0716216 7.11101 0.113342 7.04609 0.165873 6.99163L3.18942 3.88293L0.165873 0.947523C0.11403 0.897899 0.072606 0.837406 0.0442595 0.769924C0.015913 0.702443 0.00126997 0.629464 0.00126997 0.55567C0.00126997 0.481876 0.015913 0.408897 0.0442595 0.341416C0.072606 0.273934 0.11403 0.213441 0.165873 0.163817C0.276381 0.0583872 0.420146 0 0.569233 0C0.718321 0 0.862085 0.0583872 0.972593 0.163817L3.99779 3.09923L7.0263 0.164688C7.13708 0.059135 7.28112 0.000690035 7.43049 0.000690035C7.57985 0.000690035 7.72389 0.059135 7.83467 0.164688C7.88718 0.214161 7.92908 0.274852 7.95759 0.342719C7.98609 0.410585 8.00054 0.484071 7.99998 0.558282C8.00002 0.632408 7.98533 0.705722 7.95686 0.773509C7.92839 0.841296 7.88677 0.902054 7.83467 0.951877L4.80121 3.88468L7.83137 6.98989C7.88355 7.04438 7.92497 7.10921 7.95323 7.18065C7.9815 7.25209 7.99605 7.32873 7.99605 7.40613C7.99605 7.48352 7.9815 7.56016 7.95323 7.6316C7.92497 7.70304 7.88355 7.76787 7.83137 7.82236C7.72329 7.93352 7.57823 7.99575 7.42718 7.99575C7.27613 7.99575 7.13107 7.93352 7.02299 7.82236L3.99779 4.7154L0.972593 7.82584C0.865038 7.93687 0.720637 7.99934 0.57006 8C0.41891 7.9998 0.273837 7.93729 0.165873 7.82584Z" fill="#176CF7"/>
</svg>
