<svg width="153" height="45" viewBox="0 0 153 45" fill="none" xmlns="http://www.w3.org/2000/svg">
<path d="M49.9688 23C49.9688 25.5712 49.2063 28.0847 47.7778 30.2225C46.3493 32.3604 44.3189 34.0266 41.9434 35.0105C39.5679 35.9944 36.954 36.2518 34.4322 35.7501C31.9104 35.2484 29.594 34.0102 27.776 32.192C25.9579 30.3738 24.7199 28.0573 24.2184 25.5355C23.7169 23.0137 23.9745 20.3998 24.9586 18.0243C25.9428 15.6489 27.6092 13.6187 29.7472 12.1904C31.8851 10.762 34.3987 9.99978 36.9699 10C38.6771 10 40.3675 10.3363 41.9448 10.9896C43.522 11.6429 44.9551 12.6004 46.1623 13.8076C47.3694 15.0148 48.327 16.4479 48.9803 18.0251C49.6336 19.6023 49.9699 21.2928 49.9699 23" fill="#FFC217"/>
<path d="M1.8321 16.6221C2.13423 16.6182 2.43232 16.6918 2.69793 16.8359C2.96354 16.9799 3.18782 17.1896 3.34936 17.4449C4.62809 16.7471 6.09898 16.4837 7.5404 16.6946C8.98182 16.9054 10.3157 17.579 11.3409 18.6139C12.2445 17.6846 13.4021 17.0426 14.6688 16.7682C15.9356 16.4937 17.2551 16.5991 18.4622 17.0711C19.6693 17.5431 20.7104 18.3607 21.455 19.4215C22.1997 20.4824 22.6148 21.7394 22.6484 23.035V29.0371C22.6335 29.5096 22.4327 29.9572 22.0896 30.2825C21.7466 30.6078 21.289 30.7845 20.8163 30.7743C20.5839 30.7789 20.353 30.7375 20.1366 30.6526C19.9203 30.5677 19.7228 30.4409 19.5556 30.2795C19.3884 30.1181 19.2547 29.9253 19.1622 29.7121C19.0697 29.4988 19.0202 29.2695 19.0166 29.0371V23.0361C19.0166 22.2571 18.7071 21.51 18.1562 20.9591C17.6054 20.4082 16.8582 20.0988 16.0792 20.0988C15.3001 20.0988 14.553 20.4082 14.0021 20.9591C13.4513 21.51 13.1418 22.2571 13.1418 23.0361V29.0371C13.1382 29.2695 13.0887 29.4988 12.9962 29.7121C12.9037 29.9253 12.77 30.1181 12.6028 30.2795C12.4355 30.4409 12.2381 30.5677 12.0218 30.6526C11.8054 30.7375 11.5744 30.7789 11.3421 30.7743C10.869 30.7851 10.4108 30.6087 10.0673 30.2833C9.72374 29.9579 9.52262 29.51 9.50773 29.0371V23.0361C9.50773 22.2571 9.19825 21.51 8.64739 20.9591C8.09652 20.4082 7.34938 20.0988 6.57034 20.0988C5.79129 20.0988 5.04415 20.4082 4.49329 20.9591C3.94242 21.51 3.63294 22.2571 3.63294 23.0361V29.0371C3.62931 29.2695 3.57983 29.4988 3.48733 29.7121C3.39483 29.9253 3.26113 30.1181 3.09391 30.2795C2.9267 30.4409 2.72925 30.5677 2.51291 30.6526C2.29656 30.7375 2.06558 30.7789 1.83322 30.7743C1.36036 30.7848 0.902476 30.6082 0.559165 30.2829C0.215854 29.9576 0.014893 29.5098 0 29.0371V18.3615C0.0143165 17.8886 0.21487 17.4405 0.558002 17.1147C0.901135 16.7889 1.35906 16.6119 1.8321 16.6221Z" fill="white"/>
<path d="M51.2938 23.6968C51.3055 22.755 51.5027 21.8248 51.8743 20.9593C52.2458 20.0938 52.7844 19.3101 53.4591 18.6529C54.1339 17.9958 54.9316 17.4782 55.8066 17.1297C56.6817 16.7811 57.6168 16.6086 58.5586 16.6219C59.8829 16.6221 61.1822 16.9821 62.3177 17.6635C62.4594 17.3414 62.6951 17.0695 62.9939 16.8836C63.2928 16.6977 63.6408 16.6065 63.9924 16.6219C64.2248 16.6171 64.4559 16.6584 64.6724 16.7432C64.8889 16.8281 65.0865 16.9548 65.2538 17.1163C65.4211 17.2777 65.5549 17.4706 65.6475 17.6839C65.7401 17.8971 65.7896 18.1266 65.7932 18.3591V29.0346C65.7896 29.2671 65.7401 29.4966 65.6475 29.7098C65.5549 29.9231 65.4211 30.116 65.2538 30.2774C65.0865 30.4389 64.8889 30.5656 64.6724 30.6505C64.4559 30.7353 64.2248 30.7766 63.9924 30.7718C63.6408 30.7872 63.2928 30.6959 62.9939 30.5101C62.6951 30.3242 62.4594 30.0523 62.3177 29.7302C61.1822 30.4117 59.8829 30.7717 58.5586 30.7718C57.6168 30.7851 56.6817 30.6126 55.8066 30.264C54.9316 29.9155 54.1339 29.3979 53.4591 28.7408C52.7844 28.0836 52.2458 27.2999 51.8743 26.4344C51.5027 25.5689 51.3055 24.6386 51.2938 23.6968ZM54.9257 23.6968C54.9168 24.4135 55.1211 25.1166 55.5125 25.717C55.9039 26.3174 56.4648 26.788 57.1241 27.069C57.7834 27.3501 58.5114 27.429 59.2156 27.2957C59.9198 27.1623 60.5685 26.8228 61.0794 26.3202C61.5904 25.8176 61.9405 25.1746 62.0853 24.4726C62.2302 23.7707 62.1633 23.0416 61.8931 22.3778C61.6229 21.7139 61.1616 21.1453 60.5677 20.7441C59.9739 20.3429 59.2742 20.1271 58.5575 20.1242C58.0843 20.1199 57.615 20.209 57.1763 20.3863C56.7376 20.5636 56.3381 20.8257 56.0008 21.1575C55.6635 21.4893 55.3949 21.8844 55.2104 22.3201C55.0259 22.7559 54.9292 23.2237 54.9257 23.6968Z" fill="white"/>
<path d="M68.2563 24.36V14.3465C68.2712 13.874 68.4721 13.4264 68.8151 13.1011C69.1582 12.7758 69.6158 12.5991 70.0885 12.6093C70.3209 12.6046 70.552 12.6458 70.7685 12.7307C70.985 12.8155 71.1825 12.9423 71.3499 13.1037C71.5172 13.2651 71.651 13.458 71.7436 13.6713C71.8362 13.8846 71.8857 14.114 71.8893 14.3465V16.5906H74.1635C74.399 16.5822 74.6337 16.6213 74.8537 16.7056C75.0737 16.7899 75.2744 16.9177 75.444 17.0813C75.6135 17.2449 75.7484 17.4409 75.8405 17.6578C75.9326 17.8746 75.98 18.1078 75.98 18.3434C75.98 18.579 75.9326 18.8122 75.8405 19.0291C75.7484 19.2459 75.6135 19.442 75.444 19.6056C75.2744 19.7692 75.0737 19.8969 74.8537 19.9812C74.6337 20.0655 74.399 20.1047 74.1635 20.0963H71.8893V24.3611C71.8952 25.1352 72.2077 25.8753 72.7582 26.4194C73.3088 26.9635 74.0526 27.2672 74.8267 27.2639H76.1843C76.4219 27.2519 76.6595 27.2883 76.8826 27.371C77.1057 27.4537 77.3097 27.5809 77.4821 27.7448C77.6546 27.9087 77.7919 28.106 77.8857 28.3247C77.9795 28.5433 78.0279 28.7788 78.0279 29.0167C78.0279 29.2547 77.9795 29.4901 77.8857 29.7088C77.7919 29.9274 77.6546 30.1247 77.4821 30.2887C77.3097 30.4526 77.1057 30.5798 76.8826 30.6624C76.6595 30.7451 76.4219 30.7816 76.1843 30.7696H74.8267C73.9743 30.78 73.1282 30.6225 72.3367 30.3059C71.5453 29.9893 70.8239 29.5199 70.2139 28.9245C69.6038 28.3291 69.1171 27.6193 68.7814 26.8357C68.4457 26.0522 68.2677 25.2101 68.2575 24.3578" fill="white"/>
<path d="M79.1836 29.0041V23.0333C79.2028 21.3085 79.9051 19.6617 81.1365 18.454C82.3679 17.2462 84.028 16.576 85.7528 16.5903C86.6403 16.587 87.5195 16.7614 88.3386 17.1031C89.1577 17.4448 89.9002 17.9468 90.5223 18.5798C91.4278 17.6488 92.5884 17.0063 93.858 16.733C95.1276 16.4597 96.4497 16.5678 97.6581 17.0437C98.8664 17.5197 99.9071 18.3422 100.649 19.4079C101.392 20.4736 101.802 21.7349 101.83 23.0333V29.003C101.826 29.2394 101.775 29.4728 101.681 29.6896C101.586 29.9065 101.45 30.1027 101.28 30.2669C101.11 30.4312 100.909 30.5602 100.689 30.6468C100.469 30.7334 100.234 30.7757 99.9977 30.7715C99.7629 30.7753 99.5296 30.7324 99.3115 30.6453C99.0934 30.5582 98.8948 30.4286 98.7272 30.2641C98.5596 30.0995 98.4264 29.9033 98.3354 29.6868C98.2444 29.4703 98.1972 29.2379 98.1968 29.003V23.0333C98.1968 22.2543 97.8874 21.5071 97.3365 20.9563C96.7856 20.4054 96.0385 20.0959 95.2595 20.0959C94.4804 20.0959 93.7333 20.4054 93.1824 20.9563C92.6315 21.5071 92.3221 22.2543 92.3221 23.0333V29.003C92.3216 29.2379 92.2745 29.4703 92.1835 29.6868C92.0924 29.9033 91.9593 30.0995 91.7917 30.2641C91.6241 30.4286 91.4255 30.5582 91.2074 30.6453C90.9893 30.7324 90.756 30.7753 90.5212 30.7715C90.2848 30.7757 90.0498 30.7334 89.8297 30.6468C89.6097 30.5602 89.4088 30.4312 89.2387 30.2669C89.0685 30.1027 88.9324 29.9065 88.8381 29.6896C88.7438 29.4728 88.6932 29.2394 88.6891 29.003V23.0333C88.6891 22.2543 88.3796 21.5071 87.8288 20.9563C87.2779 20.4054 86.5308 20.0959 85.7517 20.0959C84.9727 20.0959 84.2255 20.4054 83.6747 20.9563C83.1238 21.5071 82.8143 22.2543 82.8143 23.0333V29.003C82.8139 29.2379 82.7668 29.4703 82.6758 29.6868C82.5847 29.9033 82.4515 30.0995 82.2839 30.2641C82.1164 30.4286 81.9178 30.5582 81.6997 30.6453C81.4816 30.7324 81.2483 30.7753 81.0135 30.7715C80.777 30.7757 80.5421 30.7334 80.322 30.6468C80.1019 30.5602 79.9011 30.4312 79.7309 30.2669C79.5608 30.1027 79.4247 29.9065 79.3304 29.6896C79.2361 29.4728 79.1855 29.2394 79.1814 29.003" fill="white"/>
<path d="M103.95 18.3576C103.954 18.1212 104.005 17.8878 104.099 17.671C104.193 17.4541 104.329 17.2579 104.499 17.0937C104.67 16.9295 104.87 16.8004 105.091 16.7138C105.311 16.6272 105.546 16.5849 105.782 16.5892C106.017 16.5853 106.25 16.6282 106.468 16.7153C106.686 16.8024 106.885 16.932 107.053 17.0966C107.22 17.2611 107.353 17.4574 107.444 17.6738C107.535 17.8903 107.582 18.1228 107.583 18.3576V24.3586C107.583 25.1376 107.892 25.8848 108.443 26.4356C108.994 26.9865 109.741 27.296 110.52 27.296C111.299 27.296 112.046 26.9865 112.597 26.4356C113.148 25.8848 113.458 25.1376 113.458 24.3586V18.3576C113.462 18.1212 113.512 17.8878 113.607 17.671C113.701 17.4541 113.837 17.2579 114.007 17.0937C114.177 16.9295 114.378 16.8004 114.598 16.7138C114.818 16.6272 115.053 16.5849 115.29 16.5892C115.525 16.5853 115.758 16.6282 115.976 16.7153C116.194 16.8024 116.393 16.932 116.56 17.0966C116.728 17.2611 116.861 17.4574 116.952 17.6738C117.043 17.8903 117.09 18.1228 117.091 18.3576V24.3586C117.052 26.0753 116.343 27.7087 115.115 28.9091C113.887 30.1095 112.238 30.7817 110.521 30.7817C108.804 30.7817 107.155 30.1095 105.927 28.9091C104.699 27.7087 103.99 26.0753 103.951 24.3586L103.95 18.3576Z" fill="white"/>
<path d="M118.763 23.6966C118.804 21.8011 119.585 19.997 120.94 18.6709C122.295 17.3448 124.116 16.6022 126.012 16.6022C127.907 16.6022 129.728 17.3448 131.083 18.6709C132.438 19.997 133.219 21.8011 133.26 23.6966V29.0031C133.26 29.238 133.213 29.4704 133.122 29.6869C133.031 29.9034 132.897 30.0996 132.73 30.2642C132.562 30.4287 132.364 30.5583 132.145 30.6454C131.927 30.7325 131.694 30.7754 131.459 30.7716C131.109 30.7803 130.764 30.6861 130.466 30.5008C130.168 30.3155 129.931 30.0471 129.785 29.7288C128.648 30.4068 127.349 30.7669 126.026 30.7716C124.125 30.793 122.293 30.0606 120.932 28.7346C119.57 27.4085 118.79 25.597 118.761 23.6966H118.763ZM126.026 27.2692C126.733 27.26 127.422 27.0416 128.006 26.6415C128.589 26.2415 129.041 25.6777 129.305 25.0212C129.569 24.3646 129.632 23.6447 129.488 22.9521C129.343 22.2595 128.997 21.6251 128.493 21.1289C127.988 20.6328 127.348 20.2969 126.653 20.1638C125.958 20.0306 125.24 20.106 124.588 20.3805C123.936 20.6551 123.379 21.1165 122.989 21.7065C122.598 22.2966 122.391 22.989 122.394 23.6966C122.404 24.6511 122.792 25.5626 123.473 26.232C124.153 26.9014 125.071 27.2743 126.026 27.2692Z" fill="white"/>
<path d="M135.379 24.36V14.3465C135.394 13.874 135.595 13.4264 135.938 13.1011C136.281 12.7758 136.738 12.5991 137.211 12.6093C137.443 12.6046 137.675 12.6458 137.891 12.7307C138.108 12.8155 138.305 12.9423 138.472 13.1037C138.64 13.2651 138.774 13.458 138.866 13.6713C138.959 13.8846 139.008 14.114 139.012 14.3465V16.5906H141.286C141.522 16.5822 141.756 16.6213 141.976 16.7056C142.196 16.7899 142.397 16.9177 142.567 17.0813C142.736 17.2449 142.871 17.4409 142.963 17.6578C143.055 17.8746 143.103 18.1078 143.103 18.3434C143.103 18.579 143.055 18.8122 142.963 19.0291C142.871 19.2459 142.736 19.442 142.567 19.6056C142.397 19.7692 142.196 19.8969 141.976 19.9812C141.756 20.0655 141.522 20.1047 141.286 20.0963H139.012V24.3611C139.018 25.1352 139.33 25.8753 139.881 26.4194C140.431 26.9635 141.175 27.2672 141.949 27.2639H143.308C143.546 27.2519 143.783 27.2883 144.006 27.371C144.229 27.4537 144.433 27.5809 144.606 27.7448C144.778 27.9087 144.916 28.106 145.009 28.3247C145.103 28.5433 145.152 28.7788 145.152 29.0167C145.152 29.2547 145.103 29.4901 145.009 29.7088C144.916 29.9274 144.778 30.1247 144.606 30.2887C144.433 30.4526 144.229 30.5798 144.006 30.6624C143.783 30.7451 143.546 30.7816 143.308 30.7696H141.949C141.097 30.78 140.251 30.6225 139.459 30.3059C138.668 29.9893 137.946 29.5199 137.336 28.9245C136.726 28.3291 136.24 27.6193 135.904 26.8357C135.568 26.0522 135.39 25.2101 135.38 24.3578" fill="white"/>
<path d="M73.7862 16.622H63.8955V20.0752H73.7862V16.622Z" fill="white"/>
<path d="M30.3973 22.5764C30.4014 22.34 30.452 22.1067 30.5463 21.8898C30.6406 21.6729 30.7767 21.4768 30.9469 21.3125C31.117 21.1483 31.3179 21.0192 31.538 20.9326C31.758 20.846 31.993 20.8037 32.2294 20.808C32.4643 20.8041 32.6975 20.847 32.9156 20.9341C33.1337 21.0212 33.3323 21.1508 33.4999 21.3154C33.6675 21.4799 33.8007 21.6762 33.8917 21.8927C33.9828 22.1091 34.0299 22.3416 34.0303 22.5764V24.3628C34.0303 25.1418 34.3398 25.8889 34.8906 26.4398C35.4415 26.9907 36.1886 27.3002 36.9677 27.3002C37.7467 27.3002 38.4939 26.9907 39.0447 26.4398C39.5956 25.8889 39.9051 25.1418 39.9051 24.3628V22.5764C39.9091 22.34 39.9598 22.1067 40.0541 21.8898C40.1484 21.6729 40.2845 21.4768 40.4546 21.3125C40.6248 21.1483 40.8256 21.0192 41.0457 20.9326C41.2657 20.846 41.5007 20.8037 41.7372 20.808C41.9719 20.8043 42.205 20.8473 42.423 20.9344C42.641 21.0216 42.8395 21.1512 43.0069 21.3158C43.1744 21.4803 43.3075 21.6765 43.3984 21.8929C43.4894 22.1093 43.5365 22.3417 43.5369 22.5764V24.3628C43.4981 26.0795 42.7889 27.7129 41.5611 28.9133C40.3332 30.1137 38.6843 30.7859 36.9671 30.7859C35.2499 30.7859 33.601 30.1137 32.3731 28.9133C31.1453 27.7129 30.4361 26.0795 30.3973 24.3628V22.5764Z" fill="#176CF7"/>
<path d="M34.0587 18.1581C34.0587 18.52 33.9513 18.8738 33.7503 19.1747C33.5492 19.4756 33.2634 19.7102 32.9291 19.8487C32.5947 19.9872 32.2268 20.0234 31.8718 19.9528C31.5168 19.8822 31.1908 19.7079 30.9349 19.452C30.679 19.1961 30.5047 18.87 30.4341 18.5151C30.3635 18.1601 30.3997 17.7922 30.5382 17.4578C30.6767 17.1235 30.9113 16.8377 31.2122 16.6366C31.5131 16.4355 31.8669 16.3282 32.2288 16.3282C32.7141 16.3282 33.1795 16.521 33.5227 16.8642C33.8659 17.2073 34.0587 17.6728 34.0587 18.1581Z" fill="#176CF7"/>
<path d="M43.5405 18.1581C43.5405 18.52 43.4332 18.8738 43.2321 19.1747C43.031 19.4756 42.7452 19.7102 42.4109 19.8487C42.0765 19.9872 41.7086 20.0234 41.3536 19.9528C40.9987 19.8822 40.6726 19.7079 40.4167 19.452C40.1608 19.1961 39.9865 18.87 39.9159 18.5151C39.8453 18.1601 39.8815 17.7922 40.02 17.4578C40.1585 17.1235 40.3931 16.8377 40.694 16.6366C40.9949 16.4355 41.3487 16.3282 41.7106 16.3282C42.1959 16.3282 42.6614 16.521 43.0045 16.8642C43.3477 17.2073 43.5405 17.6728 43.5405 18.1581Z" fill="#176CF7"/>
<path d="M30.3973 22.5764C30.4014 22.34 30.452 22.1067 30.5463 21.8898C30.6406 21.6729 30.7767 21.4768 30.9469 21.3125C31.117 21.1483 31.3179 21.0192 31.538 20.9326C31.758 20.846 31.993 20.8037 32.2294 20.808C32.4643 20.8041 32.6975 20.847 32.9156 20.9341C33.1337 21.0212 33.3323 21.1508 33.4999 21.3154C33.6675 21.4799 33.8007 21.6762 33.8917 21.8927C33.9828 22.1091 34.0299 22.3416 34.0303 22.5764V24.3628C34.0303 25.1418 34.3398 25.8889 34.8906 26.4398C35.4415 26.9907 36.1886 27.3002 36.9677 27.3002C37.7467 27.3002 38.4939 26.9907 39.0447 26.4398C39.5956 25.8889 39.9051 25.1418 39.9051 24.3628V22.5764C39.9091 22.34 39.9598 22.1067 40.0541 21.8898C40.1484 21.6729 40.2845 21.4768 40.4546 21.3125C40.6248 21.1483 40.8256 21.0192 41.0457 20.9326C41.2657 20.846 41.5007 20.8037 41.7372 20.808C41.9719 20.8043 42.205 20.8473 42.423 20.9344C42.641 21.0216 42.8395 21.1512 43.0069 21.3158C43.1744 21.4803 43.3075 21.6765 43.3984 21.8929C43.4894 22.1093 43.5365 22.3417 43.5369 22.5764V24.3628C43.4981 26.0795 42.7889 27.7129 41.5611 28.9133C40.3332 30.1137 38.6843 30.7859 36.9671 30.7859C35.2499 30.7859 33.601 30.1137 32.3731 28.9133C31.1453 27.7129 30.4361 26.0795 30.3973 24.3628V22.5764Z" fill="#176CF7"/>
<path d="M34.0587 18.1581C34.0587 18.52 33.9513 18.8738 33.7503 19.1747C33.5492 19.4756 33.2634 19.7102 32.9291 19.8487C32.5947 19.9872 32.2268 20.0234 31.8718 19.9528C31.5168 19.8822 31.1908 19.7079 30.9349 19.452C30.679 19.1961 30.5047 18.87 30.4341 18.5151C30.3635 18.1601 30.3997 17.7922 30.5382 17.4578C30.6767 17.1235 30.9113 16.8377 31.2122 16.6366C31.5131 16.4355 31.8669 16.3282 32.2288 16.3282C32.7141 16.3282 33.1795 16.521 33.5227 16.8642C33.8659 17.2073 34.0587 17.6728 34.0587 18.1581Z" fill="#176CF7"/>
<path d="M43.5405 18.1581C43.5405 18.52 43.4332 18.8738 43.2321 19.1747C43.031 19.4756 42.7452 19.7102 42.4109 19.8487C42.0765 19.9872 41.7086 20.0234 41.3536 19.9528C40.9987 19.8822 40.6726 19.7079 40.4167 19.452C40.1608 19.1961 39.9865 18.87 39.9159 18.5151C39.8453 18.1601 39.8815 17.7922 40.02 17.4578C40.1585 17.1235 40.3931 16.8377 40.694 16.6366C40.9949 16.4355 41.3487 16.3282 41.7106 16.3282C42.1959 16.3282 42.6614 16.521 43.0045 16.8642C43.3477 17.2073 43.5405 17.6728 43.5405 18.1581Z" fill="#176CF7"/>
</svg>
